<svg id="Layer_1" data-name="Layer 1" xmlns="http://www.w3.org/2000/svg" viewBox="0 0 129 129"><title>Translations</title><path d="M428.26,379.62H402.09V368a.5.5,0,0,0-.5-.5h-7.27a.5.5,0,0,0-.5.5v11.62H368.13a.5.5,0,0,0-.5.5v7.27a.5.5,0,0,0,.5.5H411c-2.89,12.35-11.17,21.33-13,23.17a51.85,51.85,0,0,1-12.16-20.4.5.5,0,0,0-.48-.37h-7.26a.5.5,0,0,0-.48.63,59,59,0,0,0,14.31,25.17c-10.73,8-23.85,9.33-24,9.34a.5.5,0,0,0-.45.55l.78,6.94a.5.5,0,0,0,.5.44h0c14.4-1.05,27-10.19,29.18-11.83,9.78,8,22.08,10.55,22.2,10.58a.5.5,0,0,0,.47-.15l5.54-6a.5.5,0,0,0-.28-.83,55.46,55.46,0,0,1-21.86-9,54.59,54.59,0,0,0,15.1-28.22h9.09a.5.5,0,0,0,.5-.5v-7.27A.5.5,0,0,0,428.26,379.62Z" transform="translate(-367.5 -367.5)"/><path d="M496.45,495.78l-32-64a.52.52,0,0,0-.89,0l-32,64a.5.5,0,0,0,.45.72h16a.5.5,0,0,0,.45-.28l3.86-7.72h23.38l3.86,7.72a.5.5,0,0,0,.45.28h16a.5.5,0,0,0,.45-.72ZM464,465.12l7.19,14.38H456.81Z" transform="translate(-367.5 -367.5)"/><path d="M492,376H444a4,4,0,0,0,0,8h44v68a4,4,0,0,0,8,0V380A4,4,0,0,0,492,376Z" transform="translate(-367.5 -367.5)"/><path d="M476,392H444a4,4,0,0,0,0,8h28v36a4,4,0,0,0,8,0V396A4,4,0,0,0,476,392Z" transform="translate(-367.5 -367.5)"/><path d="M460,408H444a4,4,0,0,0,0,8h12v4a4,4,0,0,0,8,0v-8A4,4,0,0,0,460,408Z" transform="translate(-367.5 -367.5)"/><path d="M420,488H376V444a4,4,0,0,0-8,0v48a4,4,0,0,0,4,4h48a4,4,0,0,0,0-8Z" transform="translate(-367.5 -367.5)"/><path d="M420,472H392V444a4,4,0,0,0-8,0v32a4,4,0,0,0,4,4h32a4,4,0,0,0,0-8Z" transform="translate(-367.5 -367.5)"/><path d="M420,456H408V444a4,4,0,0,0-8,0v16a4,4,0,0,0,4,4h16a4,4,0,0,0,0-8Z" transform="translate(-367.5 -367.5)"/></svg>