<svg id="Layer_1" data-name="Layer 1" xmlns="http://www.w3.org/2000/svg" viewBox="0 0 128 128"><defs><style>.cls-1{fill:none;}</style></defs><title>EmailMarketing</title><rect class="cls-1" x="40" y="96" width="48" height="24"/><path d="M528,96v64h96V96Zm88,56H536V104h80Z" transform="translate(-512 -80)"/><polygon points="58.45 42.43 64 45.21 67.9 43.25 67.91 43.25 90.41 32 37.59 32 58.44 42.42 58.45 42.43"/><polygon points="96 60.97 96 34.8 73.96 45.82 96 60.97"/><polygon points="32 34.8 32 60.86 52.65 45.12 32 34.8"/><path d="M577.12,130.24l-.13.05-.27.1-.21,0-.26,0h-.48l-.24,0-.23-.05-.26-.1-.14-.05-5.26-2.63L548.12,144h55.46l-22.74-15.63Z" transform="translate(-512 -80)"/><rect class="cls-1" x="40" y="96" width="48" height="24"/><rect class="cls-1" x="8" y="8" width="112" height="80" rx="8" ry="8"/><rect class="cls-1" x="40" y="96" width="48" height="24"/><rect class="cls-1" x="8" y="8" width="112" height="80" rx="8" ry="8"/><path d="M624,80H528a16,16,0,0,0-16,16v64a16,16,0,0,0,16,16h16v24H532a4,4,0,0,0,0,8h88a4,4,0,0,0,0-8H608V176h16a16,16,0,0,0,16-16V96A16,16,0,0,0,624,80ZM600,200H552V176h48Zm32-40a8,8,0,0,1-8,8H528a8,8,0,0,1-8-8V96a8,8,0,0,1,8-8h96a8,8,0,0,1,8,8Z" transform="translate(-512 -80)"/><rect x="32" y="104" width="64" height="8"/></svg>