<svg id="Layer_1" data-name="Layer 1" xmlns="http://www.w3.org/2000/svg" viewBox="0 0 88 128"><defs><style>.cls-1{fill:none;}</style></defs><title>MobileApplications</title><path class="cls-1" d="M744,232H688a8,8,0,0,0-8,8v96a8,8,0,0,0,8,8h56a8,8,0,0,0,8-8V240A8,8,0,0,0,744,232Zm-28,6.5a1.83,1.83,0,1,1-1.83,1.83A1.83,1.83,0,0,1,716,238.5ZM744,336H688V248h56Z" transform="translate(-672 -224)"/><path d="M744,224H688a16,16,0,0,0-16,16v96a16,16,0,0,0,16,16h56a16,16,0,0,0,16-16V240A16,16,0,0,0,744,224Zm8,112a8,8,0,0,1-8,8H688a8,8,0,0,1-8-8V240a8,8,0,0,1,8-8h56a8,8,0,0,1,8,8Z" transform="translate(-672 -224)"/><path d="M688,336h56V248H688Zm8-80h40v72H696Z" transform="translate(-672 -224)"/><circle cx="44" cy="16.33" r="1.83"/><rect x="32" y="40" width="24" height="8"/><rect x="32" y="56" width="24" height="8"/><rect x="32" y="72" width="24" height="24"/></svg>