<svg id="Layer_1" data-name="Layer 1" xmlns="http://www.w3.org/2000/svg" viewBox="0 0 128 128"><defs><style>.cls-1{fill:none;}</style></defs><title>WebsiteDevelopment</title><rect class="cls-1" x="40" y="96" width="48" height="24"/><rect class="cls-1" x="40" y="96" width="48" height="24"/><rect class="cls-1" x="8" y="8" width="112" height="80" rx="8" ry="8"/><rect class="cls-1" x="40" y="96" width="48" height="24"/><rect class="cls-1" x="8" y="8" width="112" height="80" rx="8" ry="8"/><path d="M768,80H672a16,16,0,0,0-16,16v64a16,16,0,0,0,16,16h16v24H676a4,4,0,0,0,0,8h88a4,4,0,0,0,0-8H752V176h16a16,16,0,0,0,16-16V96A16,16,0,0,0,768,80ZM744,200H696V176h48Zm32-40a8,8,0,0,1-8,8H672a8,8,0,0,1-8-8V96a8,8,0,0,1,8-8h96a8,8,0,0,1,8,8Z" transform="translate(-656 -80)"/><path d="M672,96v64h96V96Zm88,56H680V112h80Z" transform="translate(-656 -80)"/><rect x="32" y="40" width="32" height="24"/><rect x="72" y="40" width="24" height="8"/><rect x="72" y="56" width="24" height="8"/><rect x="32" y="104" width="64" height="8"/></svg>