<svg id="Layer_1" data-name="Layer 1" xmlns="http://www.w3.org/2000/svg" viewBox="0 0 128 128"><title>ContentCreation</title><polygon points="80 88 88 88 88 96 24 96 24 104 88 104 88 112 80 112 80 120 104 120 104 112 96 112 96 104 96 96 96 88 104 88 104 80 80 80 80 88"/><path d="M200,224H96a16,16,0,0,0-16,16v96a16,16,0,0,0,16,16h60a4,4,0,0,0,0-8H96a8,8,0,0,1-8-8V240a8,8,0,0,1,8-8H200v60a4,4,0,0,0,8,0V224Z" transform="translate(-80 -224)"/><rect x="24" y="72" width="32" height="8"/><rect x="24" y="48" width="80" height="8"/><rect x="24" y="24" width="80" height="8"/></svg>