<svg id="Layer_1" data-name="Layer 1" xmlns="http://www.w3.org/2000/svg" viewBox="0 0 432 288"><title>MDM_Solutions</title><rect x="36" y="45" width="180" height="18"/><rect x="36" y="81" width="198" height="18"/><rect x="36" y="117" width="180" height="18"/><rect x="36" y="153" width="162" height="18"/><rect x="36" y="225" width="162" height="18"/><rect x="36" y="189" width="216" height="18"/><path d="M360,620h72a8.06,8.06,0,0,0,.89-.05,36,36,0,1,0,0-15.9A8.06,8.06,0,0,0,432,604H360V553.44l74.18-37.09a36,36,0,1,0-1.87-17L360,535.56V468H108a36,36,0,0,0-36,36V720a36,36,0,0,0,36,36H360V688.44l72.3,36.15a36,36,0,1,0,1.87-17L360,670.56V620Zm108-26a18,18,0,1,1-18,18A18,18,0,0,1,468,594Zm0-108a18,18,0,1,1-18,18A18,18,0,0,1,468,486ZM342,612V738H108a18,18,0,0,1-18-18V504a18,18,0,0,1,18-18H342Zm126,90a18,18,0,1,1-18,18A18,18,0,0,1,468,702Z" transform="translate(-72 -468)"/></svg>