<svg id="Layer_1" data-name="Layer 1" xmlns="http://www.w3.org/2000/svg" viewBox="0 0 128 128"><title>TemplateBuilding</title><path d="M140,368H96a16,16,0,0,0-16,16v44a4,4,0,0,0,8,0V384a8,8,0,0,1,8-8h44a4,4,0,0,0,0-8Z" transform="translate(-80 -368)"/><path d="M132,488H88V444a4,4,0,0,0-8,0v52h52a4,4,0,0,0,0-8Z" transform="translate(-80 -368)"/><path d="M192,368H156a4,4,0,0,0,0,8h36a8,8,0,0,1,8,8v96a8,8,0,0,1-8,8H148a4,4,0,0,0,0,8h44a16,16,0,0,0,16-16V384A16,16,0,0,0,192,368Z" transform="translate(-80 -368)"/><rect x="24" y="24" width="80" height="8"/><rect x="24" y="48" width="80" height="8"/><path d="M104,440v32h40V440Zm32,24H112V448h24Z" transform="translate(-80 -368)"/><rect x="72" y="72" width="32" height="8"/><rect x="72" y="96" width="32" height="8"/></svg>