<svg id="Layer_1" data-name="Layer 1" xmlns="http://www.w3.org/2000/svg" viewBox="0 0 128 128"><title>Branding</title><rect width="32" height="8" rx="4" ry="4"/><rect x="96" y="120" width="32" height="8" rx="4" ry="4"/><rect x="104" width="24" height="8" rx="4" ry="4"/><rect y="120" width="24" height="8" rx="4" ry="4"/><rect x="32" y="120" width="24" height="8" rx="4" ry="4"/><rect x="64" y="120" width="24" height="8" rx="4" ry="4"/><rect x="40" width="24" height="8" rx="4" ry="4"/><rect x="72" width="24" height="8" rx="4" ry="4"/><rect y="24" width="8" height="8" rx="4" ry="4"/><rect x="16" y="24" width="8" height="8" rx="4" ry="4"/><rect x="32" y="24" width="8" height="8" rx="4" ry="4"/><rect x="48" y="24" width="8" height="8" rx="4" ry="4"/><rect x="64" y="24" width="8" height="8" rx="4" ry="4"/><rect x="80" y="24" width="8" height="8" rx="4" ry="4"/><rect x="96" y="24" width="8" height="8" rx="4" ry="4"/><rect x="112" y="24" width="16" height="8" rx="4" ry="4"/><rect x="184" y="176" width="8" height="8" rx="4" ry="4" transform="translate(296 280) rotate(180)"/><rect x="168" y="176" width="8" height="8" rx="4" ry="4" transform="translate(264 280) rotate(180)"/><rect x="152" y="176" width="8" height="8" rx="4" ry="4" transform="translate(232 280) rotate(180)"/><rect x="136" y="176" width="8" height="8" rx="4" ry="4" transform="translate(200 280) rotate(180)"/><rect x="120" y="176" width="8" height="8" rx="4" ry="4" transform="translate(168 280) rotate(180)"/><rect x="104" y="176" width="8" height="8" rx="4" ry="4" transform="translate(136 280) rotate(180)"/><rect x="80" y="176" width="16" height="8" rx="4" ry="4" transform="translate(96 280) rotate(180)"/><circle cx="16" cy="64" r="16"/><rect x="40" y="48" width="88" height="8"/><rect x="40" y="72" width="88" height="8"/></svg>