<svg id="Layer_1" data-name="Layer 1" xmlns="http://www.w3.org/2000/svg" viewBox="0 0 128 128"><title>GraphicDesign</title><path d="M552,280a16,16,0,1,0-16-16A16,16,0,0,0,552,280Zm0-24a8,8,0,1,1-8,8A8,8,0,0,1,552,256Z" transform="translate(-512 -224)"/><path d="M624,224H528a16,16,0,0,0-16,16V352H624a16,16,0,0,0,16-16V240A16,16,0,0,0,624,224ZM520,272V240a8,8,0,0,1,8-8h96a8,8,0,0,1,8,8v34.34l-41.08,41.08-21.16-21.16a4,4,0,0,0-5.68,0L520,338.34V272Zm68,72H525.66l41.26-41.26L587.17,323a3.93,3.93,0,0,0,.75,1.08h0a3.93,3.93,0,0,0,1.08.75L608.18,344H588Zm44-52v44a8,8,0,0,1-8,8h-4.51l-22.92-22.92L632,285.66V292Z" transform="translate(-512 -224)"/></svg>