<svg id="Layer_1" data-name="Layer 1" xmlns="http://www.w3.org/2000/svg" viewBox="0 0 128 128"><title>Photography</title><path d="M432,120a32,32,0,1,0,32,32A32,32,0,0,0,432,120Zm0,48a16,16,0,1,1,16-16A16,16,0,0,1,432,168Z" transform="translate(-368 -80)"/><circle cx="104" cy="40" r="8"/><path d="M488,96H464a16,16,0,0,0-16-16H416a16,16,0,0,0-16,16H368v96a16,16,0,0,0,16,16h96a16,16,0,0,0,16-16V96Zm0,48v48a8,8,0,0,1-8,8H384a8,8,0,0,1-8-8V104h32V96a8,8,0,0,1,8-8h32a8,8,0,0,1,8,8v8h32Z" transform="translate(-368 -80)"/></svg>