<svg id="Layer_1" data-name="Layer 1" xmlns="http://www.w3.org/2000/svg" viewBox="0 0 128 128"><title>Writing</title><path d="M256,132V108a4,4,0,0,0-8,0v52l16,16,16-16V84a4,4,0,0,0-8,0v76H256Z" transform="translate(-224 -80)"/><path d="M292,136h32a4,4,0,0,0,0-8H292a4,4,0,0,0,0,8Z" transform="translate(-224 -80)"/><path d="M292,160h32a4,4,0,0,0,0-8H292a4,4,0,0,0,0,8Z" transform="translate(-224 -80)"/><path d="M252,176a4,4,0,0,0,0,8h8a4,4,0,0,0,0-8Z" transform="translate(-224 -80)"/><path d="M292,112h32a4,4,0,0,0,0-8H292a4,4,0,0,0,0,8Z" transform="translate(-224 -80)"/><path d="M336,80H292a4,4,0,0,0,0,8h44a8,8,0,0,1,8,8v96a8,8,0,0,1-8,8H232V96a8,8,0,0,1,8-8h20a4,4,0,0,0,0-8H240a16,16,0,0,0-16,16V208H336a16,16,0,0,0,16-16V96A16,16,0,0,0,336,80Z" transform="translate(-224 -80)"/></svg>