<svg id="Layer_1" data-name="Layer 1" xmlns="http://www.w3.org/2000/svg" viewBox="0 0 288 224"><defs><style>.cls-1{fill:none;}.cls-2{fill:#231f20;}</style></defs><title>Interactive</title><rect class="cls-1" x="116" y="204" width="56" height="8"/><path class="cls-2" d="M540,386H252v16l16,16H524l16-16ZM424,406H368v-8h56Z" transform="translate(-252 -194)"/><path class="cls-2" d="M516.47,194H275.53a7.8,7.8,0,0,0-7.53,8V370a7.8,7.8,0,0,0,7.53,8H516.47a7.8,7.8,0,0,0,7.53-8V202A7.8,7.8,0,0,0,516.47,194ZM283.06,226H508.94V362H283.06Z" transform="translate(-252 -194)"/></svg>